<?xml version="1.0" encoding="utf-8"?>
<!-- Generator: Adobe Illustrator 21.0.1, SVG Export Plug-In . SVG Version: 6.00 Build 0)  -->
<svg version="1.1" id="Layer_1" xmlns="http://www.w3.org/2000/svg" xmlns:xlink="http://www.w3.org/1999/xlink" x="0px" y="0px"
	 viewBox="0 0 2000 2000" style="enable-background:new 0 0 2000 2000;" xml:space="preserve">
<style type="text/css">
	.st0{fill:#FFFFFF;}
	.st1{fill:url(#SVGID_1_);}
	.st2{fill-rule:evenodd;clip-rule:evenodd;fill:url(#SVGID_2_);}
	.st3{fill-rule:evenodd;clip-rule:evenodd;fill:url(#SVGID_3_);}
</style>
<g>
	<path class="st0" d="M496.4,869.8l-98.8,131.7c-2.3,3.1-5.9,4.9-9.8,4.9h-1.9c-3.9,0-7.6-1.9-9.9-5l-96-131.3
		c-7-9.5-22.1-4.6-22.1,7.2v228.2c0,6.7-5.5,12.2-12.2,12.2h-47.6c-6.7,0-12.2-5.5-12.2-12.2V747.9c0-6.7,5.5-12.2,12.2-12.2h64.5
		c3.9,0,7.6,1.9,9.9,5l106,145.7c4.9,6.7,14.9,6.7,19.8,0l106-145.7c2.3-3.2,6-5,9.9-5h64c6.7,0,12.2,5.5,12.2,12.2v357.7
		c0,6.7-5.5,12.2-12.2,12.2h-47.6c-6.7,0-12.2-5.5-12.2-12.2V877.2C518.4,865.4,503.4,860.4,496.4,869.8z"/>
	<path class="st0" d="M653.2,859.3v245.8c0,6.7,5.5,12.2,12.2,12.2h42.2c6.7,0,12.2-5.5,12.2-12.2V859.3c0-6.7-5.5-12.2-12.2-12.2
		h-42.2C658.7,847.1,653.2,852.5,653.2,859.3z"/>
	<path class="st0" d="M1048.2,1045.2h-184c-4.8,0-9.1,2.8-11.1,7.2l-26.2,57.7c-2,4.4-6.3,7.2-11.1,7.2h-51.3
		c-8.9,0-14.8-9.1-11.1-17.2l160.5-357.7c2-4.4,6.3-7.2,11.1-7.2h62.8c4.8,0,9.2,2.8,11.1,7.2l160.5,357.7
		c3.6,8.1-2.3,17.2-11.1,17.2h-51.8c-4.8,0-9.2-2.8-11.2-7.2l-25.7-57.6C1057.3,1048.1,1053,1045.2,1048.2,1045.2z M945,841.1
		L892.7,961c-3.5,8.1,2.4,17.1,11.2,17.1h104.6c8.8,0,14.7-9,11.2-17.1l-52.3-119.9C963.1,831.3,949.2,831.3,945,841.1z"/>
	<path class="st0" d="M1188.7,1111.5V754.4c0-6.7,5.5-12.2,12.2-12.2h39.2c6.2,0,11.4,4.6,12.1,10.8v0c1.1,9.6,12.5,14.2,19.9,8
		c20.5-17.1,47.1-24.8,70.5-24.8c83,0,138.1,61.7,138.1,140.8c0,78.6-49.7,140.8-135.9,140.8c-21,0-49.4-4.8-70.5-19.1
		c-8.1-5.5-19.1,0.3-19.1,10.1v102.7c0,6.7-5.5,12.2-12.2,12.2H1201C1194.2,1123.8,1188.7,1118.3,1188.7,1111.5z M1414.2,877
		c0-42-28.4-76.4-76.4-76.4c-48,0-76.4,34.4-76.4,76.4c0,42,31.1,76.4,76.4,76.4C1383.1,953.4,1414.2,919,1414.2,877z"/>
	<path class="st0" d="M1529.9,1108.5V751.4c0-6.7,5.5-12.2,12.2-12.2h39.2c6.2,0,11.4,4.6,12.1,10.8v0c1.1,9.6,12.5,14.2,19.9,8
		c20.5-17.1,47.1-24.8,70.5-24.8c83,0,138.1,61.7,138.1,140.8c0,78.6-49.7,140.8-135.9,140.8c-21,0-49.4-4.8-70.5-19.1
		c-8.1-5.5-19.1,0.3-19.1,10.1v102.7c0,6.7-5.5,12.2-12.2,12.2h-42.2C1535.4,1120.8,1529.9,1115.3,1529.9,1108.5z M1755.4,874
		c0-42-28.4-76.4-76.4-76.4c-48,0-76.4,34.4-76.4,76.4c0,42,31.1,76.4,76.4,76.4C1724.3,950.4,1755.4,916,1755.4,874z"/>
</g>
<linearGradient id="SVGID_1_" gradientUnits="userSpaceOnUse" x1="502.6074" y1="686.9238" x2="865.8383" y2="747.4623">
	<stop  offset="0" style="stop-color:#29ABE2"/>
	<stop  offset="1" style="stop-color:#93278F"/>
</linearGradient>
<path class="st1" d="M768.2,649.2L768.2,649.2c4-4,9.4-6.7,14.8-6.7c5.4,0,10.8,1.3,14.8,5.4l12.1,10.8c8.1,8.1,8.1,21.5,0,29.6
	L702.1,802.9c-4,2.7-9.4,5.4-14.8,5.4c-5.4,1.3-10.8-1.4-14.9-5.4l-62-62.1c-8.1-8.1-8.1-21.6,0-29.6l10.8-10.8
	c4-4.1,9.4-6.8,14.8-6.8c5.4,0,10.8,2.7,14.8,6.8l36.4,35L768.2,649.2z"/>
<linearGradient id="SVGID_2_" gradientUnits="userSpaceOnUse" x1="-1.9772" y1="1208.0101" x2="371.0387" y2="1208.0101">
	<stop  offset="0" style="stop-color:#29ABE2"/>
	<stop  offset="1" style="stop-color:#93278F"/>
</linearGradient>
<circle class="st2" cx="229.4" cy="1208" r="50.4"/>
<linearGradient id="SVGID_3_" gradientUnits="userSpaceOnUse" x1="296.4858" y1="1208.0101" x2="1167" y2="1208.0101">
	<stop  offset="0" style="stop-color:#29ABE2"/>
	<stop  offset="1" style="stop-color:#93278F"/>
</linearGradient>
<path class="st3" d="M1125,1166.1H338.4c-23.1,0-42,18.9-42,42v0c0,23.1,18.9,42,42,42H1125c23.1,0,42-18.9,42-42v0
	C1167,1184.9,1148.1,1166.1,1125,1166.1z"/>
</svg>
