<?xml version="1.0" encoding="utf-8"?>
<!-- Generator: Adobe Illustrator 21.0.1, SVG Export Plug-In . SVG Version: 6.00 Build 0)  -->
<svg version="1.1" id="Layer_1" xmlns="http://www.w3.org/2000/svg" xmlns:xlink="http://www.w3.org/1999/xlink" x="0px" y="0px"
	 viewBox="0 0 218 45" style="enable-background:new 0 0 218 45;" xml:space="preserve">
<style type="text/css">
	.st0{fill:#FFFFFF;}
	.st1{fill-rule:evenodd;clip-rule:evenodd;fill:#FFFFFF;}
</style>
<g>
	<g>
		<path class="st0" d="M80,17.1l-6.6,8.7c-0.2,0.2-0.4,0.3-0.6,0.3h-0.1c-0.3,0-0.5-0.1-0.7-0.3l-6.4-8.7c-0.5-0.6-1.5-0.3-1.5,0.5
			v15.1c0,0.4-0.4,0.8-0.8,0.8h-3.2c-0.4,0-0.8-0.4-0.8-0.8V9c0-0.4,0.4-0.8,0.8-0.8h4.3c0.3,0,0.5,0.1,0.7,0.3l7,9.7
			c0.3,0.4,1,0.4,1.3,0l7-9.7c0.2-0.2,0.4-0.3,0.7-0.3h4.2c0.4,0,0.8,0.4,0.8,0.8v23.7c0,0.4-0.4,0.8-0.8,0.8h-3.2
			c-0.4,0-0.8-0.4-0.8-0.8V17.6C81.5,16.8,80.5,16.5,80,17.1z"/>
		<path class="st0" d="M90.4,16.4v16.3c0,0.4,0.4,0.8,0.8,0.8h2.8c0.4,0,0.8-0.4,0.8-0.8V16.4c0-0.4-0.4-0.8-0.8-0.8h-2.8
			C90.8,15.6,90.4,15.9,90.4,16.4z"/>
		<path class="st0" d="M116.6,28.7h-12.2c-0.3,0-0.6,0.2-0.7,0.5L102,33c-0.1,0.3-0.4,0.5-0.7,0.5h-3.4c-0.6,0-1-0.6-0.7-1.1
			l10.6-23.7c0.1-0.3,0.4-0.5,0.7-0.5h4.2c0.3,0,0.6,0.2,0.7,0.5L124,32.3c0.2,0.5-0.2,1.1-0.7,1.1h-3.4c-0.3,0-0.6-0.2-0.7-0.5
			l-1.7-3.8C117.2,28.9,117,28.7,116.6,28.7z M109.8,15.2l-3.5,8c-0.2,0.5,0.2,1.1,0.7,1.1h6.9c0.6,0,1-0.6,0.7-1.1l-3.5-8
			C111,14.5,110.1,14.5,109.8,15.2z"/>
		<path class="st0" d="M126,33.1V9.4c0-0.4,0.4-0.8,0.8-0.8h2.6c0.4,0,0.8,0.3,0.8,0.7v0c0.1,0.6,0.8,0.9,1.3,0.5
			c1.4-1.1,3.1-1.6,4.7-1.6c5.5,0,9.2,4.1,9.2,9.3c0,5.2-3.3,9.3-9,9.3c-1.4,0-3.3-0.3-4.7-1.3c-0.5-0.4-1.3,0-1.3,0.7v6.8
			c0,0.4-0.4,0.8-0.8,0.8h-2.8C126.3,33.9,126,33.6,126,33.1z M140.9,17.6c0-2.8-1.9-5.1-5.1-5.1c-3.2,0-5.1,2.3-5.1,5.1
			c0,2.8,2.1,5.1,5.1,5.1S140.9,20.3,140.9,17.6z"/>
		<path class="st0" d="M148.6,32.9V9.2c0-0.4,0.4-0.8,0.8-0.8h2.6c0.4,0,0.8,0.3,0.8,0.7v0c0.1,0.6,0.8,0.9,1.3,0.5
			c1.4-1.1,3.1-1.6,4.7-1.6c5.5,0,9.2,4.1,9.2,9.3c0,5.2-3.3,9.3-9,9.3c-1.4,0-3.3-0.3-4.7-1.3c-0.5-0.4-1.3,0-1.3,0.7v6.8
			c0,0.4-0.4,0.8-0.8,0.8h-2.8C149,33.7,148.6,33.4,148.6,32.9z M163.5,17.4c0-2.8-1.9-5.1-5.1-5.1s-5.1,2.3-5.1,5.1
			c0,2.8,2.1,5.1,5.1,5.1S163.5,20.1,163.5,17.4z"/>
	</g>
	<path class="st0" d="M98.1,2.4L98.1,2.4c0.3-0.3,0.6-0.4,1-0.4c0.4,0,0.7,0.1,1,0.4l0.8,0.7c0.5,0.5,0.5,1.4,0,2l-7.2,7.6
		c-0.3,0.2-0.6,0.4-1,0.4c-0.4,0.1-0.7-0.1-1-0.4l-4.1-4.1c-0.5-0.5-0.5-1.4,0-2l0.7-0.7c0.3-0.3,0.6-0.4,1-0.4c0.4,0,0.7,0.2,1,0.4
		l2.4,2.3L98.1,2.4z"/>
	<circle class="st1" cx="62.3" cy="39.5" r="3.3"/>
	<path class="st1" d="M121.7,36.7H69.6c-1.5,0-2.8,1.3-2.8,2.8v0c0,1.5,1.3,2.8,2.8,2.8h52.2c1.5,0,2.8-1.3,2.8-2.8v0
		C124.5,38,123.3,36.7,121.7,36.7z"/>
</g>
</svg>
