<?xml version="1.0" encoding="utf-8"?>
<!-- Generator: Adobe Illustrator 21.0.1, SVG Export Plug-In . SVG Version: 6.00 Build 0)  -->
<svg version="1.1" id="Layer_1" xmlns="http://www.w3.org/2000/svg" xmlns:xlink="http://www.w3.org/1999/xlink" x="0px" y="0px"
	 viewBox="0 0 2000 2000" style="enable-background:new 0 0 2000 2000;" xml:space="preserve">
<style type="text/css">
	.st0{fill:#666666;}
	.st1{fill-rule:evenodd;clip-rule:evenodd;fill:#666666;}
</style>
<g>
	<g>
		<path class="st0" d="M495.4,919.8l-98.8,131.7c-2.3,3.1-5.9,4.9-9.8,4.9h-1.9c-3.9,0-7.6-1.9-9.9-5l-96-131.3
			c-7-9.5-22.1-4.6-22.1,7.2v228.2c0,6.7-5.5,12.2-12.2,12.2h-47.6c-6.7,0-12.2-5.5-12.2-12.2V797.9c0-6.7,5.5-12.2,12.2-12.2h64.5
			c3.9,0,7.6,1.9,9.9,5l106,145.7c4.9,6.7,14.9,6.7,19.8,0l106-145.7c2.3-3.2,6-5,9.9-5h64c6.7,0,12.2,5.5,12.2,12.2v357.7
			c0,6.7-5.5,12.2-12.2,12.2h-47.6c-6.7,0-12.2-5.5-12.2-12.2V927.2C517.4,915.4,502.4,910.4,495.4,919.8z"/>
		<path class="st0" d="M652.2,909.3v245.8c0,6.7,5.5,12.2,12.2,12.2h42.2c6.7,0,12.2-5.5,12.2-12.2V909.3c0-6.7-5.5-12.2-12.2-12.2
			h-42.2C657.7,897.1,652.2,902.5,652.2,909.3z"/>
		<path class="st0" d="M1047.2,1095.2h-184c-4.8,0-9.1,2.8-11.1,7.2l-26.2,57.7c-2,4.4-6.3,7.2-11.1,7.2h-51.3
			c-8.9,0-14.8-9.1-11.1-17.2l160.5-357.7c2-4.4,6.3-7.2,11.1-7.2h62.8c4.8,0,9.2,2.8,11.1,7.2l160.5,357.7
			c3.6,8.1-2.3,17.2-11.1,17.2h-51.8c-4.8,0-9.2-2.8-11.2-7.2l-25.7-57.6C1056.3,1098.1,1052,1095.2,1047.2,1095.2z M944,891.1
			L891.7,1011c-3.5,8.1,2.4,17.1,11.2,17.1h104.6c8.8,0,14.7-9,11.2-17.1l-52.3-119.9C962.1,881.3,948.2,881.3,944,891.1z"/>
		<path class="st0" d="M1187.7,1161.5V804.4c0-6.7,5.5-12.2,12.2-12.2h39.2c6.2,0,11.4,4.6,12.1,10.8v0c1.1,9.6,12.5,14.2,19.9,8
			c20.5-17.1,47.1-24.8,70.5-24.8c83,0,138.1,61.7,138.1,140.8c0,78.6-49.7,140.8-135.9,140.8c-21,0-49.4-4.8-70.5-19.1
			c-8.1-5.5-19.1,0.3-19.1,10.1v102.7c0,6.7-5.5,12.2-12.2,12.2H1200C1193.2,1173.8,1187.7,1168.3,1187.7,1161.5z M1413.2,927
			c0-42-28.4-76.4-76.4-76.4c-48,0-76.4,34.4-76.4,76.4c0,42,31.1,76.4,76.4,76.4C1382.1,1003.4,1413.2,969,1413.2,927z"/>
		<path class="st0" d="M1528.9,1158.5V801.4c0-6.7,5.5-12.2,12.2-12.2h39.2c6.2,0,11.4,4.6,12.1,10.8v0c1.1,9.6,12.5,14.2,19.9,8
			c20.5-17.1,47.1-24.8,70.5-24.8c83,0,138.1,61.7,138.1,140.8c0,78.6-49.7,140.8-135.9,140.8c-21,0-49.4-4.8-70.5-19.1
			c-8.1-5.5-19.1,0.3-19.1,10.1v102.7c0,6.7-5.5,12.2-12.2,12.2h-42.2C1534.4,1170.8,1528.9,1165.3,1528.9,1158.5z M1754.4,924
			c0-42-28.4-76.4-76.4-76.4c-48,0-76.4,34.4-76.4,76.4c0,42,31.1,76.4,76.4,76.4C1723.3,1000.4,1754.4,966,1754.4,924z"/>
	</g>
	<path class="st0" d="M767.2,699.2L767.2,699.2c4-4,9.4-6.7,14.8-6.7c5.4,0,10.8,1.3,14.8,5.4l12.1,10.8c8.1,8.1,8.1,21.5,0,29.6
		L701.1,852.9c-4,2.7-9.4,5.4-14.8,5.4c-5.4,1.3-10.8-1.4-14.9-5.4l-62-62.1c-8.1-8.1-8.1-21.6,0-29.6l10.8-10.8
		c4-4.1,9.4-6.8,14.8-6.8c5.4,0,10.8,2.7,14.8,6.8l36.4,35L767.2,699.2z"/>
	<circle class="st1" cx="228.4" cy="1258" r="50.4"/>
	<path class="st1" d="M1124,1216.1H337.4c-23.1,0-42,18.9-42,42v0c0,23.1,18.9,42,42,42H1124c23.1,0,42-18.9,42-42v0
		C1166,1234.9,1147.1,1216.1,1124,1216.1z"/>
</g>
</svg>
