<?xml version="1.0" encoding="utf-8"?>
<!-- Generator: Adobe Illustrator 21.0.1, SVG Export Plug-In . SVG Version: 6.00 Build 0)  -->
<svg version="1.1" id="Layer_1" xmlns="http://www.w3.org/2000/svg" xmlns:xlink="http://www.w3.org/1999/xlink" x="0px" y="0px"
	 viewBox="0 0 159 33" style="enable-background:new 0 0 159 33;" xml:space="preserve">
<style type="text/css">
	.st0{fill:#FFFFFF;}
	.st1{fill:url(#SVGID_1_);}
	.st2{fill-rule:evenodd;clip-rule:evenodd;fill:url(#SVGID_2_);}
	.st3{fill-rule:evenodd;clip-rule:evenodd;fill:url(#SVGID_3_);}
</style>
<g>
	<path class="st0" d="M57.2,12.5l-5.1,6.7c-0.1,0.2-0.3,0.2-0.5,0.2h-0.1c-0.2,0-0.4-0.1-0.5-0.3l-4.9-6.7C45.8,12,45,12.3,45,12.9
		v11.7c0,0.3-0.3,0.6-0.6,0.6H42c-0.3,0-0.6-0.3-0.6-0.6V6.2c0-0.3,0.3-0.6,0.6-0.6h3.3c0.2,0,0.4,0.1,0.5,0.3l5.4,7.4
		c0.2,0.3,0.8,0.3,1,0l5.4-7.4c0.1-0.2,0.3-0.3,0.5-0.3h3.3c0.3,0,0.6,0.3,0.6,0.6v18.3c0,0.3-0.3,0.6-0.6,0.6H59
		c-0.3,0-0.6-0.3-0.6-0.6V12.9C58.3,12.3,57.6,12,57.2,12.5z"/>
	<path class="st0" d="M65.2,11.9v12.6c0,0.3,0.3,0.6,0.6,0.6H68c0.3,0,0.6-0.3,0.6-0.6V11.9c0-0.3-0.3-0.6-0.6-0.6h-2.2
		C65.5,11.3,65.2,11.6,65.2,11.9z"/>
	<path class="st0" d="M85.4,21.4H76c-0.2,0-0.5,0.1-0.6,0.4l-1.3,3c-0.1,0.2-0.3,0.4-0.6,0.4h-2.6c-0.5,0-0.8-0.5-0.6-0.9L78.6,6
		c0.1-0.2,0.3-0.4,0.6-0.4h3.2c0.2,0,0.5,0.1,0.6,0.4l8.2,18.3c0.2,0.4-0.1,0.9-0.6,0.9h-2.6c-0.2,0-0.5-0.1-0.6-0.4L86,21.8
		C85.9,21.6,85.7,21.4,85.4,21.4z M80.2,11l-2.7,6.1c-0.2,0.4,0.1,0.9,0.6,0.9h5.3c0.5,0,0.8-0.5,0.6-0.9L81.3,11
		C81.1,10.5,80.4,10.5,80.2,11z"/>
	<path class="st0" d="M92.6,24.8V6.6c0-0.3,0.3-0.6,0.6-0.6h2c0.3,0,0.6,0.2,0.6,0.6v0c0.1,0.5,0.6,0.7,1,0.4c1-0.9,2.4-1.3,3.6-1.3
		c4.2,0,7.1,3.2,7.1,7.2c0,4-2.5,7.2-6.9,7.2c-1.1,0-2.5-0.2-3.6-1c-0.4-0.3-1,0-1,0.5v5.3c0,0.3-0.3,0.6-0.6,0.6h-2.2
		C92.9,25.5,92.6,25.2,92.6,24.8z M104.2,12.8c0-2.1-1.5-3.9-3.9-3.9s-3.9,1.8-3.9,3.9c0,2.1,1.6,3.9,3.9,3.9S104.2,15,104.2,12.8z"
		/>
	<path class="st0" d="M110.1,24.7V6.4c0-0.3,0.3-0.6,0.6-0.6h2c0.3,0,0.6,0.2,0.6,0.6v0c0.1,0.5,0.6,0.7,1,0.4
		c1-0.9,2.4-1.3,3.6-1.3c4.2,0,7.1,3.2,7.1,7.2c0,4-2.5,7.2-6.9,7.2c-1.1,0-2.5-0.2-3.6-1c-0.4-0.3-1,0-1,0.5v5.3
		c0,0.3-0.3,0.6-0.6,0.6h-2.2C110.3,25.3,110.1,25,110.1,24.7z M121.6,12.7c0-2.1-1.5-3.9-3.9-3.9s-3.9,1.8-3.9,3.9
		c0,2.1,1.6,3.9,3.9,3.9S121.6,14.8,121.6,12.7z"/>
</g>
<linearGradient id="SVGID_1_" gradientUnits="userSpaceOnUse" x1="57.5447" y1="3.1299" x2="76.1153" y2="6.2249">
	<stop  offset="0" style="stop-color:#29ABE2"/>
	<stop  offset="1" style="stop-color:#93278F"/>
</linearGradient>
<path class="st1" d="M71.1,1.2L71.1,1.2c0.2-0.2,0.5-0.3,0.8-0.3c0.3,0,0.6,0.1,0.8,0.3l0.6,0.6c0.4,0.4,0.4,1.1,0,1.5l-5.5,5.9
	c-0.2,0.1-0.5,0.3-0.8,0.3c-0.3,0.1-0.6-0.1-0.8-0.3l-3.2-3.2c-0.4-0.4-0.4-1.1,0-1.5l0.6-0.6c0.2-0.2,0.5-0.3,0.8-0.3
	c0.3,0,0.6,0.1,0.8,0.3L67,5.6L71.1,1.2z"/>
<linearGradient id="SVGID_2_" gradientUnits="userSpaceOnUse" x1="31.7474" y1="29.7709" x2="50.8182" y2="29.7709">
	<stop  offset="0" style="stop-color:#29ABE2"/>
	<stop  offset="1" style="stop-color:#93278F"/>
</linearGradient>
<circle class="st2" cx="43.6" cy="29.8" r="2.6"/>
<linearGradient id="SVGID_3_" gradientUnits="userSpaceOnUse" x1="47.0066" y1="29.7709" x2="91.5125" y2="29.7709">
	<stop  offset="0" style="stop-color:#29ABE2"/>
	<stop  offset="1" style="stop-color:#93278F"/>
</linearGradient>
<path class="st3" d="M89.7,27.6H48.8c-1,0-1.8,0.8-1.8,1.8v0.7c0,1,0.8,1.8,1.8,1.8h40.9c1,0,1.8-0.8,1.8-1.8v-0.7
	C91.5,28.4,90.7,27.6,89.7,27.6z"/>
</svg>
